<svg width="59" height="53" viewBox="0 0 59 53" fill="none" xmlns="http://www.w3.org/2000/svg">
<path d="M29.826 14.8154H39.0889C39.6412 14.8154 40.0889 14.3677 40.0889 13.8154V3C40.0889 2.44772 39.6412 2 39.0889 2H20.5632C20.0109 2 19.5632 2.44771 19.5632 3V13.8154C19.5632 14.3677 20.0109 14.8154 20.5632 14.8154H29.826ZM29.826 14.8154V27.6308M29.826 32.5308V27.6308M29.826 27.6308H49.7183C50.2706 27.6308 50.7183 28.0785 50.7183 28.6308V32.5308M29.826 27.6308H10.3003C9.74803 27.6308 9.30031 28.0785 9.30031 28.6308V32.5308M29.826 38.9385H35.0571C35.6094 38.9385 36.0571 39.3862 36.0571 39.9385V50C36.0571 50.5523 35.6094 51 35.0571 51H24.595C24.0427 51 23.595 50.5523 23.595 50V39.9385C23.595 39.3862 24.0427 38.9385 24.595 38.9385H29.826ZM56.2163 50V39.9385C56.2163 39.3862 55.7686 38.9385 55.2163 38.9385H45.1207C44.5685 38.9385 44.1207 39.3862 44.1207 39.9385V50C44.1207 50.5523 44.5685 51 45.1207 51H55.2163C55.7686 51 56.2163 50.5523 56.2163 50ZM3.70276 51H14.1648C14.7171 51 15.1648 50.5523 15.1648 50V39.9385C15.1648 39.3862 14.7171 38.9385 14.1648 38.9385H3.70276C3.15047 38.9385 2.70276 39.3862 2.70276 39.9385V50C2.70276 50.5523 3.15048 51 3.70276 51Z" stroke="#EB8C1F" stroke-width="4" stroke-linecap="round"/>
</svg>
